PathFileType	4	(X/Y/Z)	C:/Users/opensim2020/Desktop/walking_exp_matlab/subject02_walking13_straight_04.trc																																																																																																																									
DataRate	CameraRate	NumFrames	NumMarkers	Units	OrigDataRate	OrigDataStartFrame	OrigNumFrames																																																																																																																					
100	100	4	41	mm	100	1839	118																																																																																																																					
Frame#	Time	LFHD			RFHD			LBHD			RBHD			C7			T10			CLAV			STRN			RBAK			LSHO			LUPA			LELB			LFRM			LWRA			LWRB			LFIN			RSHO			RUPA			RELB			RFRM			RWRA			RWRB			RFIN			LASI			RASI			LPSI			RPSI			LTHI			LKNE			LTIB			LANK			LHEE			LTOE			RTHI			RKNE			RTIB			RANK			RHEE			RTOE			*39			*40		
		X1	Y1	Z1	X2	Y2	Z2	X3	Y3	Z3	X4	Y4	Z4	X5	Y5	Z5	X6	Y6	Z6	X7	Y7	Z7	X8	Y8	Z8	X9	Y9	Z9	X10	Y10	Z10	X11	Y11	Z11	X12	Y12	Z12	X13	Y13	Z13	X14	Y14	Z14	X15	Y15	Z15	X16	Y16	Z16	X17	Y17	Z17	X18	Y18	Z18	X19	Y19	Z19	X20	Y20	Z20	X21	Y21	Z21	X22	Y22	Z22	X23	Y23	Z23	X24	Y24	Z24	X25	Y25	Z25	X26	Y26	Z26	X27	Y27	Z27	X28	Y28	Z28	X29	Y29	Z29	X30	Y30	Z30	X31	Y31	Z31	X32	Y32	Z32	X33	Y33	Z33	X34	Y34	Z34	X35	Y35	Z35	X36	Y36	Z36	X37	Y37	Z37	X38	Y38	Z38	X39	Y39	Z39	X40	Y40	Z40	X41	Y41	Z41
																																																																																																																												
104	1.03	542.38635	1688.29492	-1445.99878	508.70288	1659.6947	-1308.49255	403.96182	1644.59656	-1487.21399	360.05194	1617.3916	-1352.04785	312.48215	1492.51709	-1428.14661	274.79968	1208.61853	-1434.49597	452.50034	1426.10889	-1436.99353	514.52167	1260.28845	-1429.1792	260.48746	1307.44714	-1370.57227	384.55606	1468.75366	-1606.98218	334.24548	1274.61426	-1687.72803	299.24521	1141.23169	-1692.32983	258.67181	1020.87909	-1715.20837	248.03326	877.45807	-1684.50928	219.68163	902.63287	-1728.31873	189.42607	838.64349	-1719.27649	374.28482	1457.41394	-1245.18005	378.02698	1271.66296	-1151.09595	434.33902	1135.02429	-1116.98804	529.77521	1059.35938	-1106.34387	647.73138	1000.14929	-1130.19104	616.52728	962.19977	-1102.66528	686.40112	945.58801	-1098.48254	528.63153	963.82672	-1561.81567	503.72485	940.17236	-1304.86328	310.18396	996.73743	-1503.90588	293.99872	996.02332	-1392.08582	539.92596	667.96271	-1652.79126	593.12567	476.46808	-1637.82898	611.93707	285.45374	-1661.24976	705.6167	77.1965	-1654.51733	681.74597	34.42405	-1606.85242	862.48846	92.49829	-1649.07947	346.73395	651.20819	-1258.89136	287.92093	448.39951	-1301.81091	178.87009	292.90585	-1300.5575	95.21117	116.66839	-1338.78906	48.19058	70.89725	-1394.82275	231.94217	34.70798	-1325.04346	439.05594	1767.82922	-1369.32129	-2845.91406	1034.276	3357.36206
105	1.04	556.03687	1685.63428	-1446.63013	521.9198	1656.81592	-1309.26294	417.56631	1642.53467	-1488.25964	373.29584	1615.14783	-1353.2937	325.66684	1490.37488	-1429.88928	288.82452	1206.09314	-1436.66016	465.89127	1424.16089	-1438.60388	528.29407	1258.58447	-1431.26782	273.66541	1304.88586	-1372.87415	398.14743	1467.52637	-1608.45337	346.92642	1274.07898	-1690.06641	311.47299	1140.69385	-1694.75122	270.30899	1020.6496	-1718.01123	258.92001	877.2478	-1687.95667	230.58769	902.63098	-1731.32654	198.72935	839.16107	-1721.29285	386.76752	1454.79004	-1246.9375	389.45987	1268.85559	-1153.33716	446.39456	1132.7312	-1118.40186	543.08215	1058.5769	-1107.39893	662.11462	1002.01367	-1130.73425	631.41577	963.09705	-1103.76318	701.83795	948.26434	-1099.00757	544.58185	963.4325	-1563.78333	518.4884	938.12421	-1306.59326	325.35614	994.81616	-1506.7804	309.043	993.71942	-1395.25659	560.72693	668.83984	-1654.27832	610.33868	475.30835	-1639.28772	624.04926	283.44547	-1662.80347	710.94446	72.48468	-1654.73828	685.68237	30.21634	-1607.28564	867.8504	84.22967	-1649.36548	358.69907	650.3092	-1260.58044	297.81439	448.02283	-1302.41321	185.37065	295.1835	-1301.02222	97.67588	120.7794	-1338.43506	50.05615	76.31258	-1394.54858	232.29077	34.67092	-1324.71094	452.87659	1765.33923	-1369.97327	-2845.88354	1034.35571	3357.38013
106	1.05	569.59277	1682.92834	-1447.26953	534.94629	1653.83093	-1310.06812	431.10464	1640.37646	-1489.43323	386.37076	1612.82007	-1354.6189	339.13492	1488.03613	-1431.70154	302.98361	1203.42896	-1438.94958	479.34625	1422.21521	-1440.23999	542.25415	1256.90002	-1433.39673	287.44312	1302.05078	-1374.78308	411.76797	1466.26233	-1609.84473	360.02634	1273.50781	-1692.65601	324.08768	1140.23364	-1697.58582	282.58609	1020.42944	-1721.42114	271.00787	876.82526	-1691.30627	242.64719	902.21338	-1734.58777	209.15561	839.53894	-1724.18787	398.78024	1452.16785	-1249.09058	401.78088	1266.34412	-1155.32336	457.61697	1130.27429	-1120.07239	555.72571	1057.67017	-1108.65186	675.90637	1003.36694	-1131.30261	645.62585	963.62134	-1104.96887	716.00897	950.09332	-1099.54602	560.68524	963.35242	-1566.05359	533.78979	936.20825	-1308.76074	340.80078	992.81604	-1509.66455	324.5166	991.2959	-1398.53455	580.81	669.19348	-1655.6698	626.90491	473.67734	-1640.89697	635.04333	281.04657	-1664.12183	715.01862	67.79776	-1655.15674	688.39313	27.86176	-1608.10291	872.23352	75.30083	-1649.24463	371.44739	649.3324	-1262.34399	308.71622	448.04843	-1302.36768	192.32304	297.77606	-1301.48901	100.54302	125.28857	-1337.96179	52.3543	82.1823	-1394.18726	232.65099	34.72031	-1324.40918	466.57645	1762.77991	-1370.64258	-2845.81763	1034.48364	3357.37061
107	1.06	583.09741	1680.18872	-1447.84399	547.90363	1650.94055	-1310.82959	444.60562	1638.17773	-1490.58496	399.35461	1610.41003	-1356.0282	351.89581	1485.57446	-1433.59583	317.54874	1200.50867	-1441.21106	492.84033	1420.24536	-1441.94556	556.46478	1255.34094	-1435.50928	300.99149	1299.24072	-1377.04456	425.36575	1465.01648	-1611.34082	373.49887	1272.89148	-1695.04614	337.11691	1139.71277	-1700.63501	295.71307	1019.8421	-1724.79065	283.76013	876.10876	-1695.04065	255.43878	901.78156	-1738.41833	221.50043	839.07336	-1726.96277	411.15717	1449.44409	-1251.21777	412.64685	1263.49927	-1157.70496	468.67715	1127.75439	-1121.72644	567.71393	1056.48987	-1110.11768	689.03094	1004.13208	-1131.94226	659.26575	963.7757	-1106.17688	730.02863	951.54535	-1100.00854	576.74768	963.22589	-1568.50061	549.6438	934.43579	-1311.2749	356.32675	990.75598	-1512.64771	340.14883	988.82959	-1401.88098	600.12927	669.09668	-1657.41589	642.09515	471.78775	-1643.32166	645.3786	278.28552	-1664.23877	720.00403	64.91261	-1655.01709	692.20844	30.66288	-1607.76111	879.74115	60.85799	-1650.59192	384.80023	648.29736	-1264.16016	320.25586	447.96078	-1302.55566	199.95511	300.54257	-1301.82825	103.94141	130.27917	-1337.38086	55.13658	88.72948	-1393.89856	233.09392	34.60175	-1324.04626	480.05493	1760.20825	-1371.34753	-2845.9751	1034.18677	3357.29346
